<svg xmlns="http://www.w3.org/2000/svg" xmlns:xlink="http://www.w3.org/1999/xlink" width="200" zoomAndPan="magnify" viewBox="0 0 150 149.999998" height="200" preserveAspectRatio="xMidYMid meet" version="1.0"><defs><clipPath id="6e9fb1a281"><path d="M 5.03125 5.03125 L 144.96875 5.03125 L 144.96875 144.96875 L 5.03125 144.96875 Z M 5.03125 5.03125 " clip-rule="nonzero"/></clipPath><clipPath id="62543ea85a"><path d="M 75 5.03125 C 36.355469 5.03125 5.03125 36.355469 5.03125 75 C 5.03125 113.644531 36.355469 144.96875 75 144.96875 C 113.644531 144.96875 144.96875 113.644531 144.96875 75 C 144.96875 36.355469 113.644531 5.03125 75 5.03125 " clip-rule="nonzero"/></clipPath><clipPath id="bd6005c84c"><path d="M 50.015625 41 L 100.265625 41 L 100.265625 134.371094 L 50.015625 134.371094 Z M 50.015625 41 " clip-rule="nonzero"/></clipPath><clipPath id="ad5141d7cd"><path d="M 63 15.871094 L 87 15.871094 L 87 39 L 63 39 Z M 63 15.871094 " clip-rule="nonzero"/></clipPath></defs><g clip-path="url(#6e9fb1a281)"><g clip-path="url(#62543ea85a)"><path fill="#b5c4c0" d="M 5.03125 5.03125 L 144.96875 5.03125 L 144.96875 144.96875 L 5.03125 144.96875 Z M 5.03125 5.03125 " fill-opacity="1" fill-rule="nonzero"/></g></g><g clip-path="url(#bd6005c84c)"><path fill="#45514d" d="M 54.609375 89.015625 C 56.820312 88.886719 58.507812 86.996094 58.378906 84.792969 C 58.183594 81.46875 58.09375 78.441406 58.09375 75.6875 C 58.074219 63.59375 59.84375 56.796875 61.585938 53.25 L 61.585938 128.183594 C 61.585938 131.597656 64.359375 134.359375 67.785156 134.359375 C 71.207031 134.359375 73.984375 131.597656 73.984375 128.183594 L 73.984375 83.085938 L 76.308594 83.085938 L 76.308594 128.183594 C 76.308594 131.597656 79.085938 134.359375 82.507812 134.359375 C 85.933594 134.359375 88.707031 131.597656 88.707031 128.183594 L 88.707031 53.269531 C 89.003906 53.878906 89.304688 54.574219 89.601562 55.386719 C 91.015625 59.289062 92.203125 65.695312 92.199219 75.691406 C 92.199219 78.445312 92.109375 81.46875 91.914062 84.792969 C 91.789062 86.996094 93.476562 88.886719 95.6875 89.015625 C 95.765625 89.019531 95.84375 89.023438 95.921875 89.023438 C 98.03125 89.023438 99.800781 87.382812 99.925781 85.257812 C 100.128906 81.796875 100.222656 78.617188 100.222656 75.691406 C 100.203125 60.609375 97.785156 52.265625 94.488281 47.25 C 92.839844 44.757812 90.914062 43.160156 89.132812 42.273438 C 87.46875 41.4375 86 41.230469 85.085938 41.210938 C 85.003906 41.207031 84.917969 41.199219 84.832031 41.199219 L 65.460938 41.199219 C 65.378906 41.199219 65.304688 41.207031 65.222656 41.210938 C 64.3125 41.230469 62.835938 41.433594 61.15625 42.273438 C 58.460938 43.609375 55.554688 46.523438 53.519531 51.6875 C 51.460938 56.871094 50.074219 64.367188 50.070312 75.6875 C 50.070312 78.613281 50.164062 81.796875 50.367188 85.257812 C 50.492188 87.382812 52.261719 89.023438 54.371094 89.023438 C 54.449219 89.023438 54.527344 89.019531 54.609375 89.015625 Z M 54.609375 89.015625 " fill-opacity="1" fill-rule="nonzero"/></g><g clip-path="url(#ad5141d7cd)"><path fill="#45514d" d="M 86.429688 27.109375 C 86.429688 27.847656 86.359375 28.578125 86.214844 29.304688 C 86.070312 30.027344 85.855469 30.730469 85.570312 31.410156 C 85.289062 32.09375 84.941406 32.742188 84.527344 33.355469 C 84.117188 33.96875 83.648438 34.535156 83.125 35.058594 C 82.601562 35.582031 82.03125 36.046875 81.414062 36.457031 C 80.800781 36.867188 80.148438 37.210938 79.464844 37.496094 C 78.78125 37.777344 78.074219 37.992188 77.347656 38.132812 C 76.621094 38.277344 75.886719 38.351562 75.148438 38.351562 C 74.40625 38.351562 73.671875 38.277344 72.945312 38.132812 C 72.21875 37.992188 71.515625 37.777344 70.828125 37.496094 C 70.144531 37.210938 69.496094 36.867188 68.878906 36.457031 C 68.261719 36.046875 67.691406 35.582031 67.167969 35.058594 C 66.644531 34.535156 66.175781 33.96875 65.765625 33.355469 C 65.355469 32.742188 65.007812 32.09375 64.722656 31.410156 C 64.441406 30.730469 64.226562 30.027344 64.082031 29.304688 C 63.9375 28.578125 63.863281 27.847656 63.863281 27.109375 C 63.863281 26.371094 63.9375 25.640625 64.082031 24.917969 C 64.226562 24.191406 64.441406 23.492188 64.722656 22.808594 C 65.007812 22.125 65.355469 21.480469 65.765625 20.863281 C 66.175781 20.25 66.644531 19.683594 67.167969 19.160156 C 67.691406 18.640625 68.261719 18.175781 68.878906 17.765625 C 69.496094 17.355469 70.144531 17.007812 70.828125 16.726562 C 71.515625 16.441406 72.21875 16.230469 72.945312 16.085938 C 73.671875 15.941406 74.40625 15.871094 75.148438 15.871094 C 75.886719 15.871094 76.621094 15.941406 77.347656 16.085938 C 78.074219 16.230469 78.78125 16.441406 79.464844 16.726562 C 80.148438 17.007812 80.800781 17.355469 81.414062 17.765625 C 82.03125 18.175781 82.601562 18.640625 83.125 19.160156 C 83.648438 19.683594 84.117188 20.25 84.527344 20.863281 C 84.941406 21.480469 85.289062 22.125 85.570312 22.808594 C 85.855469 23.492188 86.070312 24.191406 86.214844 24.917969 C 86.359375 25.640625 86.429688 26.371094 86.429688 27.109375 Z M 86.429688 27.109375 " fill-opacity="1" fill-rule="nonzero"/></g></svg>