<svg xmlns="http://www.w3.org/2000/svg" xmlns:xlink="http://www.w3.org/1999/xlink" width="200" zoomAndPan="magnify" viewBox="0 0 150 149.999998" height="200" preserveAspectRatio="xMidYMid meet" version="1.0"><defs><clipPath id="eae707e3b9"><path d="M 5.03125 5.03125 L 144.96875 5.03125 L 144.96875 144.96875 L 5.03125 144.96875 Z M 5.03125 5.03125 " clip-rule="nonzero"/></clipPath><clipPath id="061a661c8d"><path d="M 75 5.03125 C 36.355469 5.03125 5.03125 36.355469 5.03125 75 C 5.03125 113.644531 36.355469 144.96875 75 144.96875 C 113.644531 144.96875 144.96875 113.644531 144.96875 75 C 144.96875 36.355469 113.644531 5.03125 75 5.03125 " clip-rule="nonzero"/></clipPath><clipPath id="e26c79783b"><path d="M 29.59375 29.433594 L 120.253906 29.433594 L 120.253906 120.933594 L 29.59375 120.933594 Z M 29.59375 29.433594 " clip-rule="nonzero"/></clipPath></defs><g clip-path="url(#eae707e3b9)"><g clip-path="url(#061a661c8d)"><path fill="#b5c4c0" d="M 5.03125 5.03125 L 144.96875 5.03125 L 144.96875 144.96875 L 5.03125 144.96875 Z M 5.03125 5.03125 " fill-opacity="1" fill-rule="nonzero"/></g></g><g clip-path="url(#e26c79783b)"><path fill="#45514d" d="M 120.253906 50.066406 L 108.402344 29.433594 C 108 30.351562 107.527344 31.242188 106.984375 32.109375 L 116.546875 48.75 L 106.375 52.703125 L 116.679688 57.652344 L 92.386719 107.171875 L 95.238281 107.171875 L 120.121094 56.453125 L 112.828125 52.949219 Z M 43.472656 52.703125 L 33.300781 48.75 L 42.863281 32.109375 C 42.320312 31.242188 41.847656 30.351562 41.445312 29.433594 L 29.59375 50.066406 L 37.019531 52.949219 L 29.726562 56.453125 L 54.609375 107.171875 L 57.460938 107.171875 L 33.167969 57.648438 Z M 74.921875 36.257812 C 65.464844 36.257812 56.894531 33.652344 50.648438 29.433594 L 67.507812 92.976562 L 73.917969 117.136719 L 74.921875 120.933594 L 75.929688 117.136719 L 82.339844 92.976562 L 99.199219 29.433594 C 92.953125 33.652344 84.382812 36.257812 74.921875 36.257812 Z M 54.667969 34.617188 C 55.871094 35.167969 57.113281 35.664062 58.390625 36.109375 C 61.496094 37.195312 64.804688 37.972656 68.242188 38.410156 C 69.308594 38.546875 70.386719 38.644531 71.472656 38.714844 L 68.761719 41.429688 L 61.222656 48.976562 L 59.054688 51.148438 Z M 81.699219 85.429688 L 79.847656 63.695312 L 75.308594 63.695312 L 75.308594 62.496094 L 79.746094 62.496094 L 79.101562 54.914062 L 70.746094 54.914062 L 68.148438 85.429688 L 59.816406 54.015625 L 69.292969 44.527344 L 70.746094 52.984375 L 79.101562 52.984375 L 80.554688 44.527344 L 90.03125 54.015625 Z M 88.625 48.976562 L 81.085938 41.429688 L 78.375 38.714844 C 79.460938 38.644531 80.539062 38.546875 81.605469 38.410156 C 85.042969 37.972656 88.351562 37.195312 91.457031 36.109375 C 92.734375 35.664062 93.980469 35.167969 95.179688 34.617188 L 90.792969 51.148438 L 88.625 48.976562 " fill-opacity="1" fill-rule="nonzero"/></g></svg>